<svg width="20" height="20" viewBox="0 0 22 22" fill="none" xmlns="http://www.w3.org/2000/svg">
<path d="M7 21H15M4 18H18M1 15H21" stroke="black" stroke-width="1.5" stroke-linecap="round" stroke-linejoin="round"/>
<path d="M19.481 14.7C19.4085 14.8809 19.4093 15.083 19.4833 15.2634C19.5572 15.4437 19.6985 15.5882 19.8771 15.6662C20.0557 15.7442 20.2577 15.7496 20.4403 15.6812C20.6228 15.6129 20.7716 15.4762 20.855 15.3L19.481 14.7ZM1.14501 15.3C1.22847 15.4762 1.37723 15.6129 1.55977 15.6812C1.74231 15.7496 1.9443 15.7442 2.12293 15.6662C2.30156 15.5882 2.44281 15.4437 2.51674 15.2634C2.59068 15.083 2.59149 14.8809 2.51901 14.7L1.14501 15.3ZM2.98701 6.376C3.08673 6.20387 3.11399 5.99918 3.0628 5.80696C3.0116 5.61473 2.88614 5.45072 2.71401 5.351C2.54189 5.25128 2.3372 5.22402 2.14497 5.27522C1.95275 5.32641 1.78873 5.45187 1.68901 5.624L2.98701 6.376ZM5.62401 1.689C5.53878 1.73838 5.46412 1.80406 5.40427 1.88229C5.34443 1.96052 5.30058 2.04978 5.27523 2.14496C5.24988 2.24014 5.24352 2.33938 5.25652 2.43702C5.26953 2.53465 5.30163 2.62877 5.35101 2.714C5.40039 2.79923 5.46607 2.8739 5.5443 2.93374C5.62254 2.99358 5.71179 3.03743 5.80697 3.06278C5.90215 3.08814 6.00139 3.09449 6.09903 3.08149C6.19666 3.06848 6.29078 3.03638 6.37601 2.987L5.62401 1.689ZM14.5 13.25C12.975 13.25 11.5125 12.6442 10.4341 11.5659C9.35581 10.4875 8.75001 9.02499 8.75001 7.5H7.25001C7.25001 9.42282 8.01385 11.2669 9.37349 12.6265C10.7331 13.9862 12.5772 14.75 14.5 14.75V13.25ZM19.425 10.469C18.9136 11.3179 18.1914 12.0201 17.3284 12.5074C16.4654 12.9947 15.4911 13.2505 14.5 13.25V14.75C15.7495 14.7507 16.9778 14.4283 18.0659 13.8141C19.154 13.2 20.0649 12.315 20.71 11.245L19.425 10.469ZM8.75001 7.5C8.74958 6.50897 9.00543 5.53467 9.49271 4.67171C9.98 3.80875 10.6822 3.08647 11.531 2.575L10.755 1.291C9.6851 1.93599 8.80012 2.84665 8.18598 3.93457C7.57185 5.02249 7.24942 6.25071 7.25001 7.5H8.75001ZM20.25 11C20.2517 12.2733 19.9895 13.5331 19.48 14.7L20.855 15.3C21.431 13.982 21.75 12.527 21.75 11H20.25ZM2.51901 14.7C2.0095 13.5331 1.74833 12.2733 1.75001 11H0.250011C0.250011 12.527 0.569011 13.982 1.14501 15.3L2.51901 14.7ZM11 1.75C10.8986 1.74761 10.8023 1.70519 10.732 1.632C10.6891 1.59024 10.6604 1.536 10.65 1.477C10.646 1.446 10.648 1.356 10.755 1.291L11.531 2.575C12.034 2.271 12.196 1.714 12.137 1.276C12.075 0.821 11.717 0.25 11 0.25V1.75ZM20.71 11.245C20.644 11.352 20.554 11.354 20.523 11.35C20.464 11.3396 20.4098 11.3109 20.368 11.268C20.2948 11.1978 20.2524 11.1014 20.25 11H21.75C21.75 10.283 21.179 9.925 20.724 9.863C20.286 9.804 19.729 9.966 19.425 10.469L20.71 11.245ZM1.75001 11C1.75001 9.314 2.20001 7.735 2.98701 6.376L1.68901 5.624C0.743735 7.25778 0.247288 9.11247 0.250011 11H1.75001ZM6.37601 2.987C7.78128 2.17408 9.37656 1.74731 11 1.75V0.25C9.04301 0.25 7.20601 0.774 5.62401 1.689L6.37601 2.987Z" fill="black"/>
<path d="M18.9 1.30698C18.8647 1.21638 18.8028 1.13855 18.7226 1.08368C18.6423 1.02881 18.5473 0.999451 18.45 0.999451C18.3528 0.999451 18.2578 1.02881 18.1775 1.08368C18.0972 1.13855 18.0354 1.21638 18 1.30698L17.57 2.40198C17.5459 2.46387 17.5093 2.52014 17.4625 2.56728C17.4157 2.61442 17.3597 2.65142 17.298 2.67598L16.207 3.10798C16.1167 3.14397 16.0392 3.20624 15.9846 3.28673C15.9301 3.36722 15.9009 3.46223 15.9009 3.55948C15.9009 3.65673 15.9301 3.75175 15.9846 3.83224C16.0392 3.91273 16.1167 3.975 16.207 4.01098L17.298 4.44298C17.3598 4.46722 17.4158 4.504 17.4626 4.55099C17.5095 4.59797 17.546 4.65415 17.57 4.71598L18 5.80998C18.162 6.21998 18.74 6.21998 18.9 5.80998L19.33 4.71498C19.3544 4.65318 19.3912 4.59705 19.4381 4.55008C19.4851 4.50312 19.5412 4.46632 19.603 4.44198L20.694 4.00998C20.7844 3.974 20.8619 3.91173 20.9164 3.83124C20.971 3.75075 21.0002 3.65573 21.0002 3.55848C21.0002 3.46123 20.971 3.36622 20.9164 3.28573C20.8619 3.20524 20.7844 3.14297 20.694 3.10698L19.603 2.67498C19.5411 2.65053 19.4849 2.61358 19.438 2.56644C19.391 2.51929 19.3543 2.46297 19.33 2.40098L18.9 1.30698ZM15.033 7.12998C14.9977 7.03938 14.9358 6.96155 14.8556 6.90668C14.7753 6.85181 14.6803 6.82245 14.583 6.82245C14.4858 6.82245 14.3908 6.85181 14.3105 6.90668C14.2302 6.96155 14.1684 7.03938 14.133 7.12998L13.976 7.52898C13.9518 7.59069 13.9152 7.64676 13.8684 7.69372C13.8216 7.74068 13.7657 7.77753 13.704 7.80198L13.306 7.95998C13.2157 7.99597 13.1382 8.05824 13.0836 8.13873C13.0291 8.21922 12.9999 8.31423 12.9999 8.41148C12.9999 8.50873 13.0291 8.60375 13.0836 8.68424C13.1382 8.76473 13.2157 8.827 13.306 8.86298L13.704 9.01998C13.829 9.06998 13.927 9.16798 13.976 9.29398L14.133 9.69298C14.294 10.103 14.872 10.103 15.033 9.69298L15.19 9.29298C15.2143 9.23128 15.2509 9.17521 15.2977 9.12824C15.3445 9.08128 15.4004 9.04443 15.462 9.01998L15.86 8.86298C15.9504 8.827 16.0279 8.76473 16.0824 8.68424C16.137 8.60375 16.1662 8.50873 16.1662 8.41148C16.1662 8.31423 16.137 8.21922 16.0824 8.13873C16.0279 8.05824 15.9504 7.99597 15.86 7.95998L15.462 7.80198C15.4004 7.77753 15.3445 7.74068 15.2977 7.69372C15.2509 7.64676 15.2143 7.59069 15.19 7.52898L15.033 7.12898V7.12998Z" stroke="black"/>
</svg>
