<svg width="20" height="20" viewBox="0 0 22 22" fill="none" xmlns="http://www.w3.org/2000/svg">
<path d="M7 21H15M4 18H18M1 15H21" stroke="black" stroke-width="1.5" stroke-linecap="round" stroke-linejoin="round"/>
<path d="M11 5C9.84521 4.99994 8.71497 5.3331 7.74488 5.95951C6.77479 6.58592 6.00607 7.47896 5.53098 8.53145C5.05588 9.58394 4.89459 10.7512 5.06647 11.8931C5.23835 13.035 5.7361 14.103 6.49997 14.969H15.5C16.2638 14.103 16.7616 13.035 16.9335 11.8931C17.1053 10.7512 16.9441 9.58394 16.469 8.53145C15.9939 7.47896 15.2251 6.58592 14.2551 5.95951C13.285 5.3331 12.1547 4.99994 11 5Z" stroke="black" stroke-width="1.5"/>
<path d="M11 1V2M21 11H20M2 11H1M18.07 3.93L17.678 4.323M4.322 4.322L3.929 3.929" stroke="black" stroke-width="1.5" stroke-linecap="round"/>
</svg>
